<svg width="21" height="20" viewBox="0 0 21 20" fill="none" xmlns="http://www.w3.org/2000/svg">
<g id="call-filled">
<g id="Union">
<path d="M10.4523 3.00144C10.1092 2.96332 9.8002 3.21054 9.76209 3.55361C9.72398 3.89667 9.97119 4.20568 10.3143 4.24379C11.7671 4.40519 13.1219 5.05579 14.1562 6.08877C15.1904 7.12175 15.8427 8.47571 16.006 9.92834C16.0445 10.2714 16.3538 10.5182 16.6969 10.4796C17.0399 10.4411 17.2867 10.1318 17.2482 9.78876C17.0533 8.05433 16.2744 6.4377 15.0395 5.20433C13.8046 3.97096 12.187 3.19414 10.4523 3.00144Z" fill="white"/>
<path d="M10.503 6.15071C10.1642 6.08461 9.83593 6.30567 9.76983 6.64446C9.70373 6.98325 9.92479 7.31148 10.2636 7.37758C10.9086 7.50343 11.5014 7.81888 11.9661 8.28358C12.4308 8.74828 12.7463 9.34107 12.8721 9.98609C12.9382 10.3249 13.2664 10.5459 13.6052 10.4798C13.944 10.4137 14.1651 10.0855 14.099 9.74672C13.9255 8.85752 13.4906 8.04031 12.85 7.3997C12.2094 6.75908 11.3922 6.3242 10.503 6.15071Z" fill="white"/>
<path d="M8.6013 11.6487C7.82632 10.8737 7.21438 9.99743 6.76548 9.06246C6.72687 8.98204 6.70756 8.94183 6.69273 8.89095C6.64002 8.71013 6.67788 8.48809 6.78753 8.33495C6.81839 8.29186 6.85525 8.255 6.92898 8.18127C7.15446 7.95578 7.26721 7.84304 7.34092 7.72967C7.6189 7.30212 7.6189 6.75094 7.34092 6.3234C7.26721 6.21003 7.15447 6.09728 6.92898 5.8718L6.80329 5.74611C6.46053 5.40334 6.28914 5.23196 6.10508 5.13886C5.73902 4.95371 5.30672 4.95371 4.94066 5.13886C4.7566 5.23196 4.58521 5.40335 4.24245 5.74611L4.14078 5.84778C3.79919 6.18937 3.62839 6.36017 3.49794 6.59238C3.3532 6.85005 3.24913 7.25025 3.25001 7.54579C3.2508 7.81213 3.30246 7.99415 3.40579 8.3582C3.96109 10.3147 5.00883 12.1608 6.54901 13.701C8.08919 15.2412 9.93534 16.2889 11.8918 16.8442C12.2558 16.9475 12.4379 16.9992 12.7042 17C12.9998 17.0009 13.4 16.8968 13.6576 16.7521C13.8898 16.6216 14.0606 16.4508 14.4022 16.1092L14.5039 16.0076C14.8466 15.6648 15.018 15.4934 15.1111 15.3093C15.2963 14.9433 15.2963 14.511 15.1111 14.1449C15.018 13.9609 14.8467 13.7895 14.5039 13.4467L14.3782 13.321C14.1527 13.0955 14.04 12.9828 13.9266 12.9091C13.4991 12.6311 12.9479 12.6311 12.5203 12.9091C12.407 12.9828 12.2942 13.0955 12.0687 13.321C11.995 13.3947 11.9581 13.4316 11.915 13.4625C11.7619 13.5721 11.5399 13.61 11.3591 13.5573C11.3082 13.5424 11.268 13.5231 11.1875 13.4845C10.2526 13.0356 9.37629 12.4237 8.6013 11.6487Z" fill="white"/>
</g>
</g>
</svg>
