<svg width="16" height="16" viewBox="0 0 16 16" fill="none" xmlns="http://www.w3.org/2000/svg">
<g id="dots-horizontal">
<g id="Icon">
<path d="M7.99984 8.66665C8.36803 8.66665 8.6665 8.36817 8.6665 7.99998C8.6665 7.63179 8.36803 7.33331 7.99984 7.33331C7.63165 7.33331 7.33317 7.63179 7.33317 7.99998C7.33317 8.36817 7.63165 8.66665 7.99984 8.66665Z" fill="#98A2B3"/>
<path d="M12.6665 8.66665C13.0347 8.66665 13.3332 8.36817 13.3332 7.99998C13.3332 7.63179 13.0347 7.33331 12.6665 7.33331C12.2983 7.33331 11.9998 7.63179 11.9998 7.99998C11.9998 8.36817 12.2983 8.66665 12.6665 8.66665Z" fill="#98A2B3"/>
<path d="M3.33317 8.66665C3.70136 8.66665 3.99984 8.36817 3.99984 7.99998C3.99984 7.63179 3.70136 7.33331 3.33317 7.33331C2.96498 7.33331 2.6665 7.63179 2.6665 7.99998C2.6665 8.36817 2.96498 8.66665 3.33317 8.66665Z" fill="#98A2B3"/>
<path d="M7.99984 8.66665C8.36803 8.66665 8.6665 8.36817 8.6665 7.99998C8.6665 7.63179 8.36803 7.33331 7.99984 7.33331C7.63165 7.33331 7.33317 7.63179 7.33317 7.99998C7.33317 8.36817 7.63165 8.66665 7.99984 8.66665Z" stroke="#98A2B3" stroke-linecap="round" stroke-linejoin="round"/>
<path d="M12.6665 8.66665C13.0347 8.66665 13.3332 8.36817 13.3332 7.99998C13.3332 7.63179 13.0347 7.33331 12.6665 7.33331C12.2983 7.33331 11.9998 7.63179 11.9998 7.99998C11.9998 8.36817 12.2983 8.66665 12.6665 8.66665Z" stroke="#98A2B3" stroke-linecap="round" stroke-linejoin="round"/>
<path d="M3.33317 8.66665C3.70136 8.66665 3.99984 8.36817 3.99984 7.99998C3.99984 7.63179 3.70136 7.33331 3.33317 7.33331C2.96498 7.33331 2.6665 7.63179 2.6665 7.99998C2.6665 8.36817 2.96498 8.66665 3.33317 8.66665Z" stroke="#98A2B3" stroke-linecap="round" stroke-linejoin="round"/>
</g>
</g>
</svg>
