<svg width="21" height="20" viewBox="0 0 21 20" fill="none" xmlns="http://www.w3.org/2000/svg">
<g id="moon-filled">
<g id="Union">
<path d="M12.7363 4C12.3757 4 12.0834 4.28033 12.0834 4.62613C12.0834 4.97192 12.3757 5.25225 12.7363 5.25225H14.2357L12.1879 7.42142C12.0351 7.58328 11.9505 7.79381 11.9505 8.01213C11.9505 8.49824 12.3615 8.89231 12.8684 8.89231H15.5971C15.9577 8.89231 16.25 8.61198 16.25 8.26618C16.25 7.92038 15.9577 7.64006 15.5971 7.64006H13.875L15.9561 5.45033C16.1078 5.29072 16.1919 5.08255 16.1919 4.86659C16.1919 4.38799 15.7873 4 15.2882 4H12.7363Z" fill="#475467"/>
<path d="M8.87412 6.04033C9.0156 5.74033 8.94855 5.38766 8.70577 5.15484C8.46299 4.92202 8.09523 4.85772 7.7824 4.99339C5.70097 5.89608 4.25 7.90574 4.25 10.2421C4.25 13.4221 6.93819 16 10.2542 16C12.6905 16 14.7862 14.6086 15.7275 12.6125C15.869 12.3125 15.8019 11.9598 15.5591 11.727C15.3163 11.4942 14.9486 11.4299 14.6358 11.5656C14.0903 11.8021 13.4843 11.9342 12.8438 11.9342C11.4153 11.9342 10.3445 11.4537 9.62805 10.7271C8.90484 9.99366 8.48971 8.95494 8.48971 7.75872C8.48971 7.14458 8.62744 6.56342 8.87412 6.04033Z" fill="#475467"/>
</g>
</g>
</svg>
