<svg width="18" height="18" viewBox="0 0 18 18" fill="none" xmlns="http://www.w3.org/2000/svg">
<g id="inbox-02">
<path id="Icon" d="M1.5 9H4.41147C4.92538 9 5.39518 9.29035 5.625 9.75C5.85482 10.2096 6.32462 10.5 6.83853 10.5H11.1615C11.6754 10.5 12.1452 10.2096 12.375 9.75C12.6048 9.29035 13.0746 9 13.5885 9H16.5M1.5 9V6.6C1.5 5.33988 1.5 4.70982 1.74524 4.22852C1.96095 3.80516 2.30516 3.46095 2.72852 3.24524C3.20982 3 3.83988 3 5.1 3H12.9C14.1601 3 14.7902 3 15.2715 3.24524C15.6948 3.46095 16.039 3.80516 16.2548 4.22852C16.5 4.70982 16.5 5.33988 16.5 6.6V9M1.5 9V11.4C1.5 12.6601 1.5 13.2902 1.74524 13.7715C1.96095 14.1948 2.30516 14.539 2.72852 14.7548C3.20982 15 3.83988 15 5.1 15H12.9C14.1601 15 14.7902 15 15.2715 14.7548C15.6948 14.539 16.039 14.1948 16.2548 13.7715C16.5 13.2902 16.5 12.6601 16.5 11.4V9" stroke="current" stroke-width="1.25" stroke-linecap="round" stroke-linejoin="round"/>
</g>
</svg>
