<svg width="21" height="20" viewBox="0 0 21 20" fill="none" xmlns="http://www.w3.org/2000/svg">
<g id="share-filled">
<path id="Icon (Stroke)" fill-rule="evenodd" clip-rule="evenodd" d="M9.12796 4.34179C9.31146 4.11851 9.58761 3.99321 9.87541 4.00028C10.1264 4.00646 10.3173 4.13133 10.4166 4.20139C10.5218 4.27566 10.642 4.37783 10.7626 4.48045L16.2624 9.15537C16.3301 9.21291 16.4074 9.27862 16.4696 9.34139C16.5395 9.41209 16.6364 9.52333 16.6944 9.68352C16.7685 9.88805 16.7685 10.1119 16.6944 10.3165C16.6364 10.4767 16.5395 10.5879 16.4696 10.6586C16.4074 10.7214 16.3301 10.7871 16.2623 10.8446L10.7626 15.5196C10.6419 15.6222 10.5218 15.7243 10.4166 15.7986C10.3173 15.8687 10.1264 15.9935 9.87541 15.9997C9.58761 16.0068 9.31146 15.8815 9.12796 15.6582C8.96759 15.4631 8.93877 15.2356 8.9278 15.1151C8.91615 14.9871 8.91617 14.8298 8.9162 14.6724L8.9162 12.6533C8.29086 12.7567 7.68173 12.9473 7.10725 13.2206C6.23011 13.6379 5.45463 14.2381 4.83373 14.9799C4.66827 15.1776 4.39659 15.2507 4.15405 15.1628C3.91151 15.0749 3.75 14.8449 3.75 14.5873V14.1953C3.75088 12.5227 4.37272 10.9093 5.49584 9.66334C6.40941 8.64989 7.60252 7.93715 8.9162 7.60575V5.35017C8.9162 5.34266 8.9162 5.33514 8.9162 5.32762C8.91617 5.17014 8.91615 5.01286 8.9278 4.88494C8.93877 4.76438 8.96759 4.53693 9.12796 4.34179Z" fill="#475467"/>
</g>
</svg>
